<svg data-v-423bf9ae="" xmlns="http://www.w3.org/2000/svg" viewBox="0 0 509.437167533562 60" class="font"><!----><!----><defs data-v-423bf9ae=""><linearGradient data-v-423bf9ae="" gradientTransform="rotate(25)" id="71e34ea0-5c52-4f04-aee0-698b4f1af8f1" x1="0%" y1="0%" x2="100%" y2="0%"><stop data-v-423bf9ae="" offset="0%" style="stop-color: rgb(8, 199, 214); stop-opacity: 1;"></stop><stop data-v-423bf9ae="" offset="100%" style="stop-color: rgb(2, 2, 62); stop-opacity: 1;"></stop></linearGradient></defs><g data-v-423bf9ae="" id="a93cd965-def0-4eea-9e47-01964c0ef09e" fill="url(#71e34ea0-5c52-4f04-aee0-698b4f1af8f1)" transform="matrix(5.628517904206723,0,0,5.628517904206723,-4.390248040313111,-21.72608033856332)"><path d="M6.23 14.35L7.62 14.35L7.62 4.58L5.81 4.58L4.30 8.46L4.20 8.46L2.70 4.58L0.78 4.58L0.78 14.35L2.17 14.35L2.17 9.67L2.13 6.73L2.24 6.73L4.20 11.76L6.16 6.73L6.27 6.73L6.23 9.67ZM16.23 14.35L16.23 13.15L15.32 13.15L15.32 9.52C15.32 7.87 14.20 6.96 12.38 6.96C10.85 6.96 9.87 7.62 9.46 8.40L10.37 9.14C10.77 8.54 11.31 8.15 12.24 8.15C13.27 8.15 13.79 8.65 13.79 9.62L13.79 10.18L12.40 10.18C10.26 10.18 9.24 10.93 9.24 12.33C9.24 13.69 10.19 14.52 11.66 14.52C12.80 14.52 13.55 14 13.83 13.13L13.90 13.13C13.99 13.86 14.42 14.35 15.29 14.35ZM12.10 13.40C11.28 13.40 10.78 13.06 10.78 12.42L10.78 12.14C10.78 11.49 11.31 11.14 12.43 11.14L13.79 11.14L13.79 12.19C13.79 12.91 13.08 13.40 12.10 13.40ZM17.86 14.35L23.93 14.35L23.93 13.12L21.31 13.12L21.31 10.42C21.31 9.41 21.97 8.58 23.21 8.58L24.64 8.58L24.64 7.13L23.77 7.13C22.30 7.13 21.67 8.04 21.39 9.04L21.31 9.04L21.31 7.13L17.86 7.13L17.86 8.36L19.78 8.36L19.78 13.12L17.86 13.12ZM29.67 14.52C31.18 14.52 32.12 13.80 32.58 12.80L31.46 12.11C31.12 12.81 30.58 13.26 29.68 13.26C28.49 13.26 27.83 12.47 27.83 11.34L27.83 10.14C27.83 8.99 28.50 8.22 29.65 8.22C30.49 8.22 31.02 8.64 31.28 9.31L32.47 8.67C32.02 7.66 31.14 6.96 29.65 6.96C27.52 6.96 26.24 8.43 26.24 10.74C26.24 13.05 27.51 14.52 29.67 14.52ZM37.80 14.52C39.93 14.52 41.23 13.05 41.23 10.74C41.23 8.43 39.93 6.96 37.80 6.96C35.67 6.96 34.37 8.43 34.37 10.74C34.37 13.05 35.67 14.52 37.80 14.52ZM37.80 13.31C36.69 13.31 35.97 12.63 35.97 11.28L35.97 10.19C35.97 8.85 36.69 8.16 37.80 8.16C38.91 8.16 39.63 8.85 39.63 10.19L39.63 11.28C39.63 12.63 38.91 13.31 37.80 13.31ZM56.42 14.35L57.85 14.35L57.85 9.35L54.53 9.35L54.53 10.53L56.42 10.53L56.42 11.41C56.42 12.47 55.79 13.23 54.66 13.23C53.23 13.23 52.72 11.98 52.72 10.19L52.72 8.64C52.72 6.85 53.30 5.71 54.66 5.71C55.75 5.71 56.14 6.45 56.43 7.31L57.85 6.83C57.44 5.52 56.56 4.41 54.64 4.41C52.22 4.41 51.06 6.22 51.06 9.53C51.06 12.70 52.09 14.52 54.12 14.52C55.41 14.52 56 13.79 56.32 13.01L56.42 13.01ZM63.45 5.81C64.20 5.81 64.48 5.45 64.48 4.98L64.48 4.69C64.48 4.23 64.20 3.86 63.43 3.86C62.68 3.86 62.40 4.23 62.40 4.69L62.40 4.98C62.40 5.45 62.68 5.81 63.45 5.81ZM60.21 14.35L66.51 14.35L66.51 13.12L64.20 13.12L64.20 7.13L60.21 7.13L60.21 8.36L62.68 8.36L62.68 13.12L60.21 13.12ZM72.34 14.35L74.93 7.13L73.40 7.13L72.41 10.18L71.47 13.08L71.39 13.08L70.45 10.18L69.45 7.13L67.87 7.13L70.46 14.35ZM79.95 14.52C81.44 14.52 82.45 13.86 82.94 13.02L81.98 12.18C81.58 12.85 80.91 13.29 79.98 13.29C78.74 13.29 77.98 12.49 77.98 11.35L77.98 11.12L83.16 11.12L83.16 10.54C83.16 8.41 81.87 6.96 79.84 6.96C77.78 6.96 76.44 8.43 76.44 10.75C76.44 13.05 77.74 14.52 79.95 14.52ZM79.84 8.12C80.91 8.12 81.61 8.86 81.61 10.00L81.61 10.14L77.98 10.14L77.98 10.04C77.98 8.92 78.75 8.12 79.84 8.12ZM86.70 14.35L86.70 9.45C86.70 8.61 87.49 8.20 88.27 8.20C89.25 8.20 89.77 8.78 89.77 9.93L89.77 14.35L91.29 14.35L91.29 9.70C91.29 7.95 90.31 6.96 88.86 6.96C87.67 6.96 87.08 7.60 86.77 8.36L86.70 8.36L86.70 7.13L85.18 7.13L85.18 14.35Z"></path></g><!----><!----></svg>