<svg data-v-423bf9ae="" xmlns="http://www.w3.org/2000/svg" viewBox="0 0 462.15760854978873 60" class="font"><!----><!----><defs data-v-423bf9ae=""><linearGradient data-v-423bf9ae="" gradientTransform="rotate(25)" id="55149624-ea75-4118-8b45-8253ff453c0d" x1="0%" y1="0%" x2="100%" y2="0%"><stop data-v-423bf9ae="" offset="0%" style="stop-color: rgb(8, 199, 214); stop-opacity: 1;"></stop><stop data-v-423bf9ae="" offset="100%" style="stop-color: rgb(2, 2, 62); stop-opacity: 1;"></stop></linearGradient></defs><g data-v-423bf9ae="" id="c1f417a6-864b-4eb7-822a-8269f2c9f3fb" fill="url(#55149624-ea75-4118-8b45-8253ff453c0d)" transform="matrix(5.628517904206723,0,0,5.628517904206723,-4.390242870936248,-21.72608033856332)"><path d="M6.23 14.35L7.62 14.35L7.62 4.58L5.81 4.58L4.30 8.46L4.20 8.46L2.70 4.58L0.78 4.58L0.78 14.35L2.17 14.35L2.17 9.67L2.13 6.73L2.24 6.73L4.20 11.76L6.16 6.73L6.27 6.73L6.23 9.67ZM16.23 14.35L16.23 13.15L15.32 13.15L15.32 9.52C15.32 7.87 14.20 6.96 12.38 6.96C10.85 6.96 9.87 7.62 9.46 8.40L10.37 9.14C10.77 8.54 11.31 8.15 12.24 8.15C13.27 8.15 13.79 8.65 13.79 9.62L13.79 10.18L12.40 10.18C10.26 10.18 9.24 10.93 9.24 12.33C9.24 13.69 10.19 14.52 11.66 14.52C12.80 14.52 13.55 14 13.83 13.13L13.90 13.13C13.99 13.86 14.42 14.35 15.29 14.35ZM12.10 13.40C11.28 13.40 10.78 13.06 10.78 12.42L10.78 12.14C10.78 11.49 11.31 11.14 12.43 11.14L13.79 11.14L13.79 12.19C13.79 12.91 13.08 13.40 12.10 13.40ZM17.86 14.35L23.93 14.35L23.93 13.12L21.31 13.12L21.31 10.42C21.31 9.41 21.97 8.58 23.21 8.58L24.64 8.58L24.64 7.13L23.77 7.13C22.30 7.13 21.67 8.04 21.39 9.04L21.31 9.04L21.31 7.13L17.86 7.13L17.86 8.36L19.78 8.36L19.78 13.12L17.86 13.12ZM29.67 14.52C31.18 14.52 32.12 13.80 32.58 12.80L31.46 12.11C31.12 12.81 30.58 13.26 29.68 13.26C28.49 13.26 27.83 12.47 27.83 11.34L27.83 10.14C27.83 8.99 28.50 8.22 29.65 8.22C30.49 8.22 31.02 8.64 31.28 9.31L32.47 8.67C32.02 7.66 31.14 6.96 29.65 6.96C27.52 6.96 26.24 8.43 26.24 10.74C26.24 13.05 27.51 14.52 29.67 14.52ZM37.80 14.52C39.93 14.52 41.23 13.05 41.23 10.74C41.23 8.43 39.93 6.96 37.80 6.96C35.67 6.96 34.37 8.43 34.37 10.74C34.37 13.05 35.67 14.52 37.80 14.52ZM37.80 13.31C36.69 13.31 35.97 12.63 35.97 11.28L35.97 10.19C35.97 8.85 36.69 8.16 37.80 8.16C38.91 8.16 39.63 8.85 39.63 10.19L39.63 11.28C39.63 12.63 38.91 13.31 37.80 13.31ZM48.02 14.35L49.45 14.35L49.45 9.35L46.13 9.35L46.13 10.53L48.02 10.53L48.02 11.41C48.02 12.47 47.39 13.23 46.26 13.23C44.83 13.23 44.32 11.98 44.32 10.19L44.32 8.64C44.32 6.85 44.90 5.71 46.26 5.71C47.35 5.71 47.74 6.45 48.03 7.31L49.45 6.83C49.04 5.52 48.16 4.41 46.24 4.41C43.82 4.41 42.66 6.22 42.66 9.53C42.66 12.70 43.69 14.52 45.72 14.52C47.01 14.52 47.60 13.79 47.92 13.01L48.02 13.01ZM55.05 5.81C55.80 5.81 56.08 5.45 56.08 4.98L56.08 4.69C56.08 4.23 55.80 3.86 55.03 3.86C54.28 3.86 54.00 4.23 54.00 4.69L54.00 4.98C54.00 5.45 54.28 5.81 55.05 5.81ZM51.81 14.35L58.11 14.35L58.11 13.12L55.80 13.12L55.80 7.13L51.81 7.13L51.81 8.36L54.28 8.36L54.28 13.12L51.81 13.12ZM63.94 14.35L66.53 7.13L65.00 7.13L64.01 10.18L63.07 13.08L62.99 13.08L62.05 10.18L61.05 7.13L59.47 7.13L62.06 14.35ZM71.55 14.52C73.04 14.52 74.05 13.86 74.54 13.02L73.58 12.18C73.18 12.85 72.51 13.29 71.58 13.29C70.34 13.29 69.58 12.49 69.58 11.35L69.58 11.12L74.76 11.12L74.76 10.54C74.76 8.41 73.47 6.96 71.44 6.96C69.38 6.96 68.04 8.43 68.04 10.75C68.04 13.05 69.34 14.52 71.55 14.52ZM71.44 8.12C72.51 8.12 73.21 8.86 73.21 10.00L73.21 10.14L69.58 10.14L69.58 10.04C69.58 8.92 70.35 8.12 71.44 8.12ZM78.30 14.35L78.30 9.45C78.30 8.61 79.09 8.20 79.87 8.20C80.85 8.20 81.37 8.78 81.37 9.93L81.37 14.35L82.89 14.35L82.89 9.70C82.89 7.95 81.91 6.96 80.46 6.96C79.27 6.96 78.68 7.60 78.37 8.36L78.30 8.36L78.30 7.13L76.78 7.13L76.78 14.35Z"></path></g><!----><!----></svg>